<svg xmlns="http://www.w3.org/2000/svg" xmlns:xlink="http://www.w3.org/1999/xlink" width="742.632" height="151.942" viewBox="0 0 742.632 151.942">
  <defs>
    <linearGradient id="linear-gradient" x1="-1.173" y1="0.528" x2="11.155" y2="0.326" gradientUnits="objectBoundingBox">
      <stop offset="0" stop-color="#fcd8ca"/>
      <stop offset="1" stop-color="#ffa784"/>
    </linearGradient>
    <linearGradient id="linear-gradient-2" x1="-2.079" y1="0.549" x2="8.61" y2="0.347" xlink:href="#linear-gradient"/>
    <linearGradient id="linear-gradient-3" x1="-7.772" y1="0.547" x2="17.443" y2="0.403" xlink:href="#linear-gradient"/>
    <linearGradient id="linear-gradient-4" x1="-5.313" y1="0.556" x2="9.803" y2="0.413" xlink:href="#linear-gradient"/>
    <linearGradient id="linear-gradient-5" x1="-4.341" y1="0.566" x2="5.727" y2="0.423" xlink:href="#linear-gradient"/>
    <linearGradient id="linear-gradient-6" x1="-5.57" y1="0.623" x2="4.498" y2="0.421" xlink:href="#linear-gradient"/>
    <linearGradient id="linear-gradient-7" x1="-7.331" y1="0.643" x2="3.483" y2="0.44" xlink:href="#linear-gradient"/>
    <linearGradient id="linear-gradient-8" x1="-9.816" y1="0.669" x2="2.511" y2="0.467" xlink:href="#linear-gradient"/>
    <linearGradient id="linear-gradient-9" x1="-9.573" y1="0.691" x2="1.116" y2="0.489" xlink:href="#linear-gradient"/>
    <linearGradient id="linear-gradient-10" x1="0.01" y1="0.398" x2="0.99" y2="0.602" gradientUnits="objectBoundingBox">
      <stop offset="0.002" stop-color="#adc8fd"/>
      <stop offset="1" stop-color="#eaa2ca"/>
    </linearGradient>
  </defs>
  <g id="Group_512" data-name="Group 512" transform="translate(-183.184 -783.8)">
    <g id="Group_367" data-name="Group 367" transform="translate(-1211)">
      <path id="Path_945" data-name="Path 945" d="M1410.2,898.168q-8.982-3.144-14.072-8.233a6.327,6.327,0,0,1-1.945-4.641,6.972,6.972,0,0,1,2.992-5.838,9.078,9.078,0,0,1,5.24-2.1,8.012,8.012,0,0,1,5.689,2.7,23.1,23.1,0,0,0,8.532,5.464,31.772,31.772,0,0,0,12.125,2.32q8.534,0,13.25-2.844t4.715-7.635q0-4.638-4.641-7.709t-15.719-5.165q-28.74-5.537-28.742-23.652a18.484,18.484,0,0,1,4.342-12.425,26.4,26.4,0,0,1,11.377-7.634,43.673,43.673,0,0,1,14.97-2.545,45.856,45.856,0,0,1,17.44,3.144,29.8,29.8,0,0,1,12.2,8.682,7.613,7.613,0,0,1,1.947,4.79,6,6,0,0,1-2.545,4.641,6.939,6.939,0,0,1-4.191,1.2,10.224,10.224,0,0,1-7.037-2.845,22.408,22.408,0,0,0-7.934-4.865,31.939,31.939,0,0,0-10.179-1.422,24.192,24.192,0,0,0-11.3,2.321q-4.418,2.322-4.416,6.511a8.188,8.188,0,0,0,1.5,5.015q1.494,2.02,5.689,3.743a72.131,72.131,0,0,0,12.125,3.368q16.313,3.294,23.127,9.131a18.987,18.987,0,0,1,6.813,15.119,22.062,22.062,0,0,1-3.742,12.5,24.929,24.929,0,0,1-11,8.832,42.838,42.838,0,0,1-17.44,3.219A57.571,57.571,0,0,1,1410.2,898.168Z" fill="url(#linear-gradient)"/>
      <path id="Path_946" data-name="Path 946" d="M1552.412,863.214a6.834,6.834,0,0,1-4.939,1.871h-56.885A26.358,26.358,0,0,0,1500.094,882q7.857,6.438,19.234,6.437a29.1,29.1,0,0,0,9.358-1.647,27.9,27.9,0,0,0,8.007-4.041,7.758,7.758,0,0,1,4.942-1.647,6.435,6.435,0,0,1,4.49,1.5,6.539,6.539,0,0,1,2.693,5.089,5.42,5.42,0,0,1-2.394,4.491,41.412,41.412,0,0,1-12.649,6.587A45.714,45.714,0,0,1,1497.324,896a38.549,38.549,0,0,1-15.195-14.746,41.884,41.884,0,0,1-5.463-21.406,44.27,44.27,0,0,1,5.164-21.482,37.353,37.353,0,0,1,14.371-14.82,41.022,41.022,0,0,1,20.883-5.314q11.526,0,19.91,5.09a33.58,33.58,0,0,1,12.873,14.221,46.9,46.9,0,0,1,4.49,20.958A6.27,6.27,0,0,1,1552.412,863.214Zm-53.068-26.122a26.885,26.885,0,0,0-8.608,16.017h49.85q-1.347-10.027-7.484-16.017t-16.018-5.988Q1506.154,831.1,1499.344,837.092Z" fill="url(#linear-gradient-2)"/>
      <path id="Path_947" data-name="Path 947" d="M1581.676,897.2a22.9,22.9,0,0,1-8.008-9.88,34.623,34.623,0,0,1-2.846-14.3V791.285a7.488,7.488,0,1,1,14.971,0v81.734a17.9,17.9,0,0,0,2.1,9.131q2.094,3.592,5.388,3.593h3.743a6.218,6.218,0,0,1,4.865,2.1,7.8,7.8,0,0,1,1.871,5.389,6.421,6.421,0,0,1-2.844,5.389,12.043,12.043,0,0,1-7.336,2.1h-.3A20.13,20.13,0,0,1,1581.676,897.2Z" fill="url(#linear-gradient-3)"/>
      <path id="Path_948" data-name="Path 948" d="M1640.58,803.111q-5.091,5.539-5.09,14.67v4.042h15.27a7.209,7.209,0,0,1,5.09,1.8,6.214,6.214,0,0,1,1.945,4.79,5.863,5.863,0,0,1-1.945,4.491,7.21,7.21,0,0,1-5.09,1.8h-15.27v58.381a7.488,7.488,0,0,1-2.095,5.539,7.891,7.891,0,0,1-5.838,2.1,7.165,7.165,0,0,1-5.164-2.1,7.333,7.333,0,0,1-2.172-5.539V834.7h-6.438a7.2,7.2,0,0,1-5.088-1.8,5.851,5.851,0,0,1-1.947-4.491,6.2,6.2,0,0,1,1.947-4.79,7.2,7.2,0,0,1,5.088-1.8h6.438v-2.545a39.051,39.051,0,0,1,4.267-18.637,30.568,30.568,0,0,1,11.975-12.425,34.764,34.764,0,0,1,17.59-4.416,7.889,7.889,0,0,1,5.463,1.946,6.7,6.7,0,0,1,0,9.88,7.88,7.88,0,0,1-5.463,1.946Q1645.668,797.572,1640.58,803.111Z" fill="url(#linear-gradient-4)"/>
      <path id="Path_949" data-name="Path 949" d="M1735.859,823.694a39.388,39.388,0,0,1,14.9,14.97,42.181,42.181,0,0,1,5.389,21.182,44.7,44.7,0,0,1-5.014,21.182,37.814,37.814,0,0,1-13.772,14.894,37.34,37.34,0,0,1-48.427-8.233v40.418a7.784,7.784,0,0,1-13.1,5.539,7.343,7.343,0,0,1-2.172-5.539V859.846a41.717,41.717,0,0,1,5.465-21.182,40.375,40.375,0,0,1,35.7-20.434A41.455,41.455,0,0,1,1735.859,823.694Zm-7.484,60.477a26.438,26.438,0,0,0,9.58-10.029,29.05,29.05,0,0,0,3.518-14.3,29.486,29.486,0,0,0-3.518-14.371,26.338,26.338,0,0,0-9.58-10.1,26.066,26.066,0,0,0-36.6,10.1,29.979,29.979,0,0,0-3.443,14.371,29.535,29.535,0,0,0,3.443,14.3,26.44,26.44,0,0,0,36.6,10.029Z" fill="url(#linear-gradient-5)"/>
      <path id="Path_950" data-name="Path 950" d="M1836.9,823.694a40.283,40.283,0,0,1,14.819,14.97,41.748,41.748,0,0,1,5.465,21.182v33.382a7.636,7.636,0,1,1-15.27,0v-5.539a37.686,37.686,0,0,1-48.426,8.233,37.787,37.787,0,0,1-13.773-14.894,44.678,44.678,0,0,1-5.014-21.182,42.181,42.181,0,0,1,5.389-21.182,39.371,39.371,0,0,1,14.894-14.97,41.449,41.449,0,0,1,21.033-5.464A40.653,40.653,0,0,1,1836.9,823.694Zm-7.336,60.477a25.894,25.894,0,0,0,9.506-10.029,29.545,29.545,0,0,0,3.444-14.3,29.99,29.99,0,0,0-3.444-14.371,26.393,26.393,0,0,0-36.6-10.1,26.316,26.316,0,0,0-9.58,10.1,29.464,29.464,0,0,0-3.518,14.371,29.029,29.029,0,0,0,3.518,14.3,26.417,26.417,0,0,0,9.58,10.029,26.853,26.853,0,0,0,27.095,0Z" fill="url(#linear-gradient-6)"/>
      <path id="Path_951" data-name="Path 951" d="M1952.99,820.775a7.492,7.492,0,0,1,2.1,5.538v66.765a7.545,7.545,0,0,1-2.1,5.464,7.672,7.672,0,0,1-13.172-5.464v-1.646a33.264,33.264,0,0,1-11.377,7.41,37.725,37.725,0,0,1-14.072,2.619,38.128,38.128,0,0,1-18.562-4.49,31.6,31.6,0,0,1-12.873-13.1q-4.644-8.607-4.641-20.733V826.313a7.635,7.635,0,1,1,15.268,0v36.826q0,12.126,6.511,18.338t17.291,6.212a25.528,25.528,0,0,0,11.451-2.544,20.278,20.278,0,0,0,8.084-6.887,17.044,17.044,0,0,0,2.92-9.73V826.313a7.35,7.35,0,0,1,2.17-5.538,8.266,8.266,0,0,1,11,0Z" fill="url(#linear-gradient-7)"/>
      <path id="Path_952" data-name="Path 952" d="M1992.66,898.168q-8.982-3.144-14.072-8.233a6.327,6.327,0,0,1-1.945-4.641,6.972,6.972,0,0,1,2.992-5.838,9.078,9.078,0,0,1,5.24-2.1,8.012,8.012,0,0,1,5.689,2.7,23.1,23.1,0,0,0,8.532,5.464,31.772,31.772,0,0,0,12.125,2.32q8.534,0,13.25-2.844t4.715-7.635q0-4.638-4.641-7.709t-15.719-5.165q-28.74-5.537-28.742-23.652a18.484,18.484,0,0,1,4.342-12.425,26.4,26.4,0,0,1,11.377-7.634,43.674,43.674,0,0,1,14.97-2.545,45.856,45.856,0,0,1,17.44,3.144,29.8,29.8,0,0,1,12.2,8.682,7.613,7.613,0,0,1,1.947,4.79,6,6,0,0,1-2.545,4.641,6.939,6.939,0,0,1-4.191,1.2,10.224,10.224,0,0,1-7.037-2.845,22.409,22.409,0,0,0-7.934-4.865,31.938,31.938,0,0,0-10.179-1.422,24.192,24.192,0,0,0-11.3,2.321q-4.417,2.322-4.416,6.511a8.188,8.188,0,0,0,1.5,5.015q1.494,2.02,5.689,3.743a72.135,72.135,0,0,0,12.125,3.368q16.313,3.294,23.127,9.131a18.987,18.987,0,0,1,6.813,15.119,22.062,22.062,0,0,1-3.742,12.5,24.929,24.929,0,0,1-11,8.832,42.838,42.838,0,0,1-17.44,3.219A57.566,57.566,0,0,1,1992.66,898.168Z" fill="url(#linear-gradient-8)"/>
      <path id="Path_953" data-name="Path 953" d="M2134.871,863.214a6.835,6.835,0,0,1-4.939,1.871h-56.885A26.358,26.358,0,0,0,2082.553,882q7.857,6.438,19.234,6.437a29.1,29.1,0,0,0,9.358-1.647,27.9,27.9,0,0,0,8.007-4.041,7.758,7.758,0,0,1,4.942-1.647,6.435,6.435,0,0,1,4.49,1.5,6.539,6.539,0,0,1,2.693,5.089,5.42,5.42,0,0,1-2.394,4.491,41.424,41.424,0,0,1-12.649,6.587A45.714,45.714,0,0,1,2079.783,896a38.55,38.55,0,0,1-15.2-14.746,41.887,41.887,0,0,1-5.463-21.406,44.269,44.269,0,0,1,5.164-21.482,37.346,37.346,0,0,1,14.371-14.82,41.023,41.023,0,0,1,20.883-5.314q11.526,0,19.91,5.09a33.579,33.579,0,0,1,12.873,14.221,46.9,46.9,0,0,1,4.49,20.958A6.271,6.271,0,0,1,2134.871,863.214ZM2081.8,837.092a26.885,26.885,0,0,0-8.608,16.017h49.85q-1.348-10.027-7.484-16.017t-16.018-5.988Q2088.613,831.1,2081.8,837.092Z" fill="url(#linear-gradient-9)"/>
    </g>
    <g id="Group_369" data-name="Group 369" transform="translate(-1211)">
      <circle id="Ellipse_256" data-name="Ellipse 256" cx="41.5" cy="41.5" r="41.5" transform="translate(1673 818.5)" fill="url(#linear-gradient-10)"/>
      <g id="Group_368" data-name="Group 368">
        <rect id="Rectangle_409" data-name="Rectangle 409" width="9.133" height="41.981" transform="translate(1699.518 839.01)" fill="#fff"/>
        <rect id="Rectangle_410" data-name="Rectangle 410" width="9.133" height="41.981" transform="translate(1720.349 839.01)" fill="#fff"/>
      </g>
    </g>
  </g>
</svg>
